<svg xmlns="http://www.w3.org/2000/svg" width="60" height="60" viewBox="0 -10 40 40" xmlns:v="https://vecta.io/nano"><path d="M21.751.51c-.634-.634-1.629-.677-2.312-.129l-2.956 2.941L.509 19.296a1.73 1.73 0 0 0-.473 1.581v7.978c0 .63.507 1.137 1.137 1.137h8.119a1.73 1.73 0 0 0 1.413-.5l18.786-18.786c.68-.68.68-1.776 0-2.456zm-.214 1.485l6.469 6.469a1.43 1.43 0 0 1 0 2.028l-1.541 1.541a1.43 1.43 0 0 1-2.028 0l-6.469-6.469a1.43 1.43 0 0 1 0-2.028l1.541-1.541a1.43 1.43 0 0 1 2.028 0zm-4.583 4.413l1.806 1.816a1.43 1.43 0 0 1 0 2.028l-6.469 6.469-3.144 3.144-3.399 3.399a1.43 1.43 0 0 1-2.028 0l-1.726-1.726a1.43 1.43 0 0 1 0-2.028L15.015 6.489a1.43 1.43 0 0 1 1.939-.081zm4.715 4.725l1.971 1.971a1.43 1.43 0 0 1-.128 1.881L10.491 28.006a1.43 1.43 0 0 1-2.028 0L6.63 26.172a1.43 1.43 0 0 1 0-2.028l13.011-13.011a1.43 1.43 0 0 1 2.028 0zM1.238 22.48l6.309 6.309H2.375c-.63 0-1.138-.507-1.138-1.138z"/><path d="M1.75 21.153a1.5 1.5 0 0 1-.068-1.107l.06-.199L15.349 6.24l.235-.072c.312-.095.642-.084.953.032l.255.095 2.212 2.249.073.237c.089.288.078.714-.027.997l-.077.21L5.49 23.47l-.255.092a1.48 1.48 0 0 1-.963.015c-.225-.076-.23-.081-1.338-1.176l-1.183-1.25zm4.58 4.488c-.117-.336-.114-.66.009-.989l.094-.251 13.554-13.523.256-.073c.326-.094.7-.07.992.063.215.098.298.173 1.36 1.235l1.13 1.13.094.282a1.44 1.44 0 0 1-.044 1.036c-.104.228-.143.268-6.798 6.923l-6.923 6.798c-.292.133-.666.157-.992.063l-.256-.073-2.382-2.348z" fill="#aa8700"/><path d="M1.38 28.157c-.038-.084-.081-.221-.094-.305s-.023-1.315-.022-2.735l.002-2.582 6.235 6.235-2.642.001c-1.876.001-2.701-.02-2.847-.07-.247-.085-.537-.334-.632-.543z" fill="#d5c68b"/><path d="M17.722 5.18c-.163-.345-.186-.718-.068-1.106.059-.195.079-.218 1.12-1.259s1.063-1.061 1.275-1.133c.291-.099.679-.093.98.015l.249.089 3.455 3.455 3.549 3.667c.118.265.135.719.04 1.027l-.073.236-.991 1.01c-.959.977-1 1.014-1.24 1.123-.334.152-.791.153-1.121.003l-.243-.111-3.43-3.432-3.501-3.583z" fill="#d03b3b"/></svg>